<mxfile host="app.diagrams.net" modified="2021-10-27T19:27:23.420Z" agent="5.0 (Windows NT 10.0; Win64; x64) AppleWebKit/537.36 (KHTML, like Gecko) Chrome/94.0.4606.81 Safari/537.36" etag="EtX6TqVL18wGBs2DJ5sw" version="15.5.9" type="github">
  <diagram id="kgpKYQtTHZ0yAKxKKP6v" name="Page-1">
    <mxGraphModel dx="1278" dy="579" grid="1" gridSize="10" guides="1" tooltips="1" connect="1" arrows="1" fold="1" page="1" pageScale="1" pageWidth="850" pageHeight="1100" math="0" shadow="0">
      <root>
        <mxCell id="0" />
        <mxCell id="1" parent="0" />
        <mxCell id="3nuBFxr9cyL0pnOWT2aG-1" value="Train Model" style="shape=umlLifeline;perimeter=lifelinePerimeter;container=1;collapsible=0;recursiveResize=0;rounded=0;shadow=0;strokeWidth=1;" parent="1" vertex="1">
          <mxGeometry x="120" y="80" width="100" height="360" as="geometry" />
        </mxCell>
        <mxCell id="3nuBFxr9cyL0pnOWT2aG-2" value="" style="points=[];perimeter=orthogonalPerimeter;rounded=0;shadow=0;strokeWidth=1;" parent="3nuBFxr9cyL0pnOWT2aG-1" vertex="1">
          <mxGeometry x="45" y="70" width="10" height="250" as="geometry" />
        </mxCell>
        <mxCell id="3nuBFxr9cyL0pnOWT2aG-3" value="Failure Detected" style="verticalAlign=bottom;startArrow=oval;endArrow=block;startSize=8;shadow=0;strokeWidth=1;" parent="3nuBFxr9cyL0pnOWT2aG-1" target="3nuBFxr9cyL0pnOWT2aG-2" edge="1">
          <mxGeometry relative="1" as="geometry">
            <mxPoint x="-80" y="70" as="sourcePoint" />
          </mxGeometry>
        </mxCell>
        <mxCell id="vd2y4h8wmbcaWY9mlnn8-13" value="emergBrakeStatus" style="endArrow=classic;html=1;rounded=0;entryX=0.452;entryY=0.425;entryDx=0;entryDy=0;entryPerimeter=0;" edge="1" parent="3nuBFxr9cyL0pnOWT2aG-1" target="3nuBFxr9cyL0pnOWT2aG-5">
          <mxGeometry width="50" height="50" relative="1" as="geometry">
            <mxPoint x="55" y="145" as="sourcePoint" />
            <mxPoint x="215.5" y="144.50489361702134" as="targetPoint" />
          </mxGeometry>
        </mxCell>
        <mxCell id="vd2y4h8wmbcaWY9mlnn8-16" value="brakeStatus" style="endArrow=classic;html=1;rounded=0;entryX=0.452;entryY=0.425;entryDx=0;entryDy=0;entryPerimeter=0;" edge="1" parent="3nuBFxr9cyL0pnOWT2aG-1">
          <mxGeometry width="50" height="50" relative="1" as="geometry">
            <mxPoint x="55" y="242" as="sourcePoint" />
            <mxPoint x="225.20000000000005" y="240" as="targetPoint" />
          </mxGeometry>
        </mxCell>
        <mxCell id="vd2y4h8wmbcaWY9mlnn8-17" value="signalPickupFailure" style="endArrow=classic;html=1;rounded=0;entryX=0.452;entryY=0.425;entryDx=0;entryDy=0;entryPerimeter=0;" edge="1" parent="3nuBFxr9cyL0pnOWT2aG-1">
          <mxGeometry width="50" height="50" relative="1" as="geometry">
            <mxPoint x="55" y="292" as="sourcePoint" />
            <mxPoint x="225.20000000000005" y="290" as="targetPoint" />
          </mxGeometry>
        </mxCell>
        <mxCell id="3nuBFxr9cyL0pnOWT2aG-5" value="Train Controller" style="shape=umlLifeline;perimeter=lifelinePerimeter;container=1;collapsible=0;recursiveResize=0;rounded=0;shadow=0;strokeWidth=1;" parent="1" vertex="1">
          <mxGeometry x="300" y="70" width="100" height="360" as="geometry" />
        </mxCell>
        <mxCell id="3nuBFxr9cyL0pnOWT2aG-6" value="" style="points=[];perimeter=orthogonalPerimeter;rounded=0;shadow=0;strokeWidth=1;" parent="3nuBFxr9cyL0pnOWT2aG-5" vertex="1">
          <mxGeometry x="45" y="80" width="10" height="40" as="geometry" />
        </mxCell>
        <mxCell id="vd2y4h8wmbcaWY9mlnn8-9" value="" style="points=[];perimeter=orthogonalPerimeter;rounded=0;shadow=0;strokeWidth=1;" vertex="1" parent="3nuBFxr9cyL0pnOWT2aG-5">
          <mxGeometry x="45" y="140" width="10" height="30" as="geometry" />
        </mxCell>
        <mxCell id="vd2y4h8wmbcaWY9mlnn8-10" value="" style="points=[];perimeter=orthogonalPerimeter;rounded=0;shadow=0;strokeWidth=1;" vertex="1" parent="3nuBFxr9cyL0pnOWT2aG-5">
          <mxGeometry x="45" y="190" width="10" height="30" as="geometry" />
        </mxCell>
        <mxCell id="vd2y4h8wmbcaWY9mlnn8-11" value="" style="points=[];perimeter=orthogonalPerimeter;rounded=0;shadow=0;strokeWidth=1;" vertex="1" parent="3nuBFxr9cyL0pnOWT2aG-5">
          <mxGeometry x="45" y="230" width="10" height="30" as="geometry" />
        </mxCell>
        <mxCell id="vd2y4h8wmbcaWY9mlnn8-12" value="" style="points=[];perimeter=orthogonalPerimeter;rounded=0;shadow=0;strokeWidth=1;" vertex="1" parent="3nuBFxr9cyL0pnOWT2aG-5">
          <mxGeometry x="45" y="280" width="10" height="30" as="geometry" />
        </mxCell>
        <mxCell id="vd2y4h8wmbcaWY9mlnn8-15" value="trainEngStatus" style="endArrow=classic;html=1;rounded=0;entryX=0.452;entryY=0.425;entryDx=0;entryDy=0;entryPerimeter=0;" edge="1" parent="3nuBFxr9cyL0pnOWT2aG-5">
          <mxGeometry width="50" height="50" relative="1" as="geometry">
            <mxPoint x="-125.19999999999999" y="206" as="sourcePoint" />
            <mxPoint x="45.00000000000006" y="204" as="targetPoint" />
          </mxGeometry>
        </mxCell>
        <mxCell id="3nuBFxr9cyL0pnOWT2aG-9" value="get system failures" style="verticalAlign=bottom;endArrow=block;shadow=0;strokeWidth=1;" parent="1" source="3nuBFxr9cyL0pnOWT2aG-5" edge="1">
          <mxGeometry relative="1" as="geometry">
            <mxPoint x="240" y="200" as="sourcePoint" />
            <mxPoint x="180" y="170" as="targetPoint" />
          </mxGeometry>
        </mxCell>
        <mxCell id="vd2y4h8wmbcaWY9mlnn8-1" value="Hardware UI" style="shape=umlLifeline;perimeter=lifelinePerimeter;container=1;collapsible=0;recursiveResize=0;rounded=0;shadow=0;strokeWidth=1;" vertex="1" parent="1">
          <mxGeometry x="490" y="80" width="100" height="360" as="geometry" />
        </mxCell>
        <mxCell id="vd2y4h8wmbcaWY9mlnn8-2" value="" style="points=[];perimeter=orthogonalPerimeter;rounded=0;shadow=0;strokeWidth=1;" vertex="1" parent="vd2y4h8wmbcaWY9mlnn8-1">
          <mxGeometry x="45" y="80" width="10" height="240" as="geometry" />
        </mxCell>
        <mxCell id="vd2y4h8wmbcaWY9mlnn8-18" value="emergBrakeStatus" style="endArrow=classic;html=1;rounded=0;entryX=0.452;entryY=0.425;entryDx=0;entryDy=0;entryPerimeter=0;" edge="1" parent="vd2y4h8wmbcaWY9mlnn8-1">
          <mxGeometry width="50" height="50" relative="1" as="geometry">
            <mxPoint x="-135" y="146" as="sourcePoint" />
            <mxPoint x="35.200000000000045" y="144" as="targetPoint" />
          </mxGeometry>
        </mxCell>
        <mxCell id="vd2y4h8wmbcaWY9mlnn8-19" value="emergBrakeStatus" style="endArrow=classic;html=1;rounded=0;entryX=0.452;entryY=0.425;entryDx=0;entryDy=0;entryPerimeter=0;" edge="1" parent="vd2y4h8wmbcaWY9mlnn8-1">
          <mxGeometry width="50" height="50" relative="1" as="geometry">
            <mxPoint x="-130" y="192" as="sourcePoint" />
            <mxPoint x="40.200000000000045" y="190" as="targetPoint" />
          </mxGeometry>
        </mxCell>
        <mxCell id="vd2y4h8wmbcaWY9mlnn8-21" value="emergBrakeStatus" style="endArrow=classic;html=1;rounded=0;entryX=0.452;entryY=0.425;entryDx=0;entryDy=0;entryPerimeter=0;" edge="1" parent="vd2y4h8wmbcaWY9mlnn8-1">
          <mxGeometry width="50" height="50" relative="1" as="geometry">
            <mxPoint x="-130" y="282" as="sourcePoint" />
            <mxPoint x="40.200000000000045" y="280" as="targetPoint" />
          </mxGeometry>
        </mxCell>
        <mxCell id="vd2y4h8wmbcaWY9mlnn8-3" value="Driver" style="shape=umlActor;verticalLabelPosition=bottom;verticalAlign=top;html=1;outlineConnect=0;" vertex="1" parent="1">
          <mxGeometry x="760" y="200" width="30" height="60" as="geometry" />
        </mxCell>
        <mxCell id="vd2y4h8wmbcaWY9mlnn8-4" value="" style="endArrow=classic;html=1;rounded=0;" edge="1" parent="1" source="vd2y4h8wmbcaWY9mlnn8-1" target="vd2y4h8wmbcaWY9mlnn8-3">
          <mxGeometry width="50" height="50" relative="1" as="geometry">
            <mxPoint x="600" y="280" as="sourcePoint" />
            <mxPoint x="650" y="230" as="targetPoint" />
          </mxGeometry>
        </mxCell>
        <mxCell id="vd2y4h8wmbcaWY9mlnn8-5" value="light LED for system failure" style="edgeLabel;html=1;align=center;verticalAlign=middle;resizable=0;points=[];" vertex="1" connectable="0" parent="vd2y4h8wmbcaWY9mlnn8-4">
          <mxGeometry x="0.1377" y="-2" relative="1" as="geometry">
            <mxPoint as="offset" />
          </mxGeometry>
        </mxCell>
        <mxCell id="vd2y4h8wmbcaWY9mlnn8-20" value="emergBrakeStatus" style="endArrow=classic;html=1;rounded=0;entryX=0.452;entryY=0.425;entryDx=0;entryDy=0;entryPerimeter=0;" edge="1" parent="1">
          <mxGeometry width="50" height="50" relative="1" as="geometry">
            <mxPoint x="360" y="312" as="sourcePoint" />
            <mxPoint x="530.2" y="310" as="targetPoint" />
          </mxGeometry>
        </mxCell>
        <mxCell id="vd2y4h8wmbcaWY9mlnn8-22" value="read data()" style="endArrow=classic;html=1;rounded=0;" edge="1" parent="1" target="3nuBFxr9cyL0pnOWT2aG-5">
          <mxGeometry x="0.2579" y="10" width="50" height="50" relative="1" as="geometry">
            <mxPoint x="340" y="180" as="sourcePoint" />
            <mxPoint x="310" y="100" as="targetPoint" />
            <Array as="points">
              <mxPoint x="320" y="180" />
              <mxPoint x="320" y="150" />
            </Array>
            <mxPoint as="offset" />
          </mxGeometry>
        </mxCell>
      </root>
    </mxGraphModel>
  </diagram>
</mxfile>
